<?xml version="1.0" encoding="UTF-8" standalone="no"?>
<svg
   version="1.1"
   id="Layer_1"
   x="0px"
   y="0px"
   width="100%"
   viewBox="0 0 400 550"
   enable-background="new 0 0 400 550"
   xml:space="preserve"
   sodipodi:docname="SA.svg"
   inkscape:version="1.4.2 (f4327f4, 2025-05-13)"
   xmlns:inkscape="http://www.inkscape.org/namespaces/inkscape"
   xmlns:sodipodi="http://sodipodi.sourceforge.net/DTD/sodipodi-0.dtd"
   xmlns="http://www.w3.org/2000/svg"
   xmlns:svg="http://www.w3.org/2000/svg"><defs
   id="defs18" /><sodipodi:namedview
   id="namedview18"
   pagecolor="#505050"
   bordercolor="#eeeeee"
   borderopacity="1"
   inkscape:showpageshadow="0"
   inkscape:pageopacity="0"
   inkscape:pagecheckerboard="0"
   inkscape:deskcolor="#505050"
   showgrid="false"
   inkscape:zoom="1.5545455"
   inkscape:cx="199.73684"
   inkscape:cy="275"
   inkscape:window-width="1920"
   inkscape:window-height="1057"
   inkscape:window-x="-8"
   inkscape:window-y="-8"
   inkscape:window-maximized="1"
   inkscape:current-layer="Layer_1" />

<path
   fill="#25303E"
   opacity="1.000000"
   stroke="none"
   d=" M195.845764,67.160217   C198.781723,69.526367 201.886169,71.714478 204.616104,74.298302   C209.294662,78.726418 214.787048,79.621284 220.799744,78.585602   C226.999268,77.517731 230.090866,80.424530 229.124771,86.518257   C228.970612,87.490685 228.822678,88.611496 229.147202,89.487648   C230.805527,93.964912 232.871048,98.375008 228.538147,102.628410   C236.994568,105.594406 240.121643,104.394958 243.977509,98.480904   C245.570129,96.038147 248.229523,94.290924 250.403748,92.227364   C251.719482,94.711143 252.957840,97.239952 254.370514,99.667313   C256.134644,102.698547 257.714600,105.929642 259.980835,108.549644   C262.205566,111.121689 262.431732,113.123161 260.019226,115.391365   C257.601227,117.664757 254.912445,119.688171 252.733139,122.164993   C251.087021,124.035843 250.056427,126.448288 248.751862,128.619690   C249.264908,129.138412 249.777954,129.657150 250.291000,130.175888   C251.652939,129.215729 253.906189,128.477768 254.211212,127.254150   C255.161224,123.443184 257.508148,122.479958 260.822723,123.074463   C265.447510,123.903954 270.062622,124.851555 274.612488,126.018867   C280.670410,127.573074 286.818298,128.985901 292.619171,131.249573   C295.778107,132.482315 298.221802,135.464767 301.145050,137.423843   C302.400360,138.265106 304.019073,138.789001 305.533295,138.982056   C314.549957,140.131729 323.880585,140.100525 332.511841,142.554825   C338.579376,144.280121 344.123962,148.828552 349.106293,153.054535   C352.668488,156.075958 356.327301,157.843231 360.670013,157.893646   C364.721710,157.940689 366.607117,159.972275 368.102478,163.293686   C373.917389,176.209412 370.875854,187.684341 359.035156,198.512070   C355.916595,201.363831 353.620300,205.095612 350.759094,208.253601   C348.190491,211.088638 345.165222,213.525635 342.734222,216.463257   C341.472717,217.987579 340.522034,220.179153 340.389923,222.134109   C340.179871,225.241974 340.334747,228.517960 341.116211,231.519516   C342.746643,237.781616 340.118042,243.225037 338.560669,248.918030   C337.606293,252.406754 336.863892,255.953888 335.889374,259.436432   C335.406403,261.162231 334.728394,262.857239 333.941040,264.469727   C331.265198,269.949768 328.761475,275.538666 325.694489,280.795685   C322.887390,285.607330 319.184387,289.718475 312.931976,289.923401   C310.102631,290.016174 307.195648,289.563751 304.455414,290.070251   C301.330139,290.647919 298.217163,291.736298 295.337738,293.105225   C289.819763,295.728516 284.370514,298.533691 279.080597,301.588623   C274.160461,304.430023 271.639252,308.573029 271.798737,314.691650   C271.917664,319.255829 270.593292,323.871033 269.756134,328.434967   C269.597321,329.300934 268.767487,330.081879 268.148193,330.818848   C265.220459,334.302673 262.290039,337.785492 259.284698,341.201904   C258.592499,341.988800 257.558319,343.120239 256.754578,343.063263   C249.187607,342.526642 247.192154,348.315552 245.373184,353.533203   C242.285904,362.389069 236.518799,368.929626 228.938309,373.867798   C223.878922,377.163727 218.254837,376.717407 212.685898,374.382446   C210.571289,373.495850 208.139191,373.366394 204.928940,372.700439   C207.401886,378.602875 209.401505,383.277496 211.317841,387.985962   C212.490631,390.867554 208.432907,397.728638 204.021820,399.289734   C196.082016,402.099640 188.323685,405.958862 179.475922,404.973480   C175.389069,404.518341 173.224106,405.667542 172.672974,410.472137   C171.650787,419.383148 167.753433,421.838196 158.824554,420.940216   C156.665085,420.723053 153.178207,420.712646 152.445816,421.914124   C150.751266,424.694153 152.816269,427.163696 155.386475,428.861786   C155.638870,429.028503 155.770233,429.378418 155.384644,428.833710   C152.903076,434.955505 150.868347,440.672363 148.222687,446.090912   C147.392853,447.790527 145.035400,448.908752 143.165512,449.889526   C141.316254,450.859467 138.738205,450.804352 137.288635,452.102173   C133.279205,455.691986 134.650208,459.906067 140.028687,462.577271   C142.461990,463.785736 144.554779,465.679810 146.802063,467.262817   C144.611282,469.290405 142.409668,471.306427 140.233490,473.349609   C138.808701,474.687347 137.134186,475.872742 136.072327,477.461151   C133.371918,481.500458 130.793076,485.302734 125.647362,486.866699   C122.360504,487.865692 121.484146,490.704071 123.035301,494.177826   C124.681442,497.864288 125.538261,501.943787 127.472000,505.447510   C128.829636,507.907349 131.085526,510.262512 133.517746,511.657806   C138.773987,514.673035 144.401520,517.041077 149.877151,519.673889   C149.816544,520.169312 149.755920,520.664795 149.695297,521.160278   C144.725250,521.160278 139.751160,521.287048 134.786118,521.129089   C128.153336,520.918152 121.498314,520.741211 114.917572,519.985779   C113.071663,519.773804 111.445244,517.591614 109.732407,516.294373   C107.882805,514.893494 106.239342,513.031006 104.173737,512.140869   C98.306015,509.612213 92.268929,507.476593 85.458435,504.863953   C92.419647,494.882812 83.182549,493.526703 78.288818,489.662567   C84.770866,483.987427 83.673256,477.353699 81.780548,470.598846   C81.646217,470.119446 81.220680,469.502106 81.385986,469.190491   C85.338921,461.738373 79.009888,461.827423 73.286026,460.099731   C77.073486,457.932587 79.742294,456.366089 82.449646,454.869324   C84.488235,453.742340 86.795868,452.982697 88.591919,451.563629   C91.455376,449.301270 94.308090,446.989136 91.863831,442.379089   C91.052673,440.849182 92.338417,438.282745 92.431473,436.179840   C92.558960,433.298553 92.463326,430.407349 92.463326,427.520416   C91.865906,427.493286 91.268486,427.466187 90.671066,427.439056   C90.408089,429.256165 90.120750,431.070129 89.887840,432.891083   C89.539749,435.612640 88.155464,437.568756 85.347832,436.621704   C84.436699,436.314331 83.513184,433.332520 83.991745,432.129547   C85.375786,428.650391 87.470024,425.453705 89.752411,421.948547   C95.275787,425.393890 97.820686,429.777313 94.879189,436.098999   C93.327805,439.433197 93.146988,442.595581 99.879730,444.057617   C92.432953,450.014587 86.366432,454.867401 80.289139,459.728851   C82.272697,460.356842 84.651253,461.109863 87.752136,462.091583   C83.725349,465.846527 83.928001,469.421814 84.855011,473.882568   C85.912148,478.969513 87.017738,484.861115 81.654221,488.907715   C91.760033,496.592377 92.085899,497.218079 89.251923,503.697845   C94.928329,506.004456 99.562965,511.122253 105.449570,510.005615   C107.888168,506.465973 109.785675,503.711761 111.713852,500.913025   C110.333992,500.913025 108.231598,500.695557 106.190971,500.958160   C101.894234,501.511139 99.417458,500.119995 98.292336,495.638916   C97.915459,494.137909 95.560059,492.583923 93.813507,492.081512   C88.925446,490.675446 89.748184,486.035065 88.326721,482.810303   C87.895943,481.833008 89.604713,479.332825 90.930038,478.283997   C93.557465,476.204590 95.566864,474.136322 95.190338,470.468750   C95.100143,469.590179 95.538025,468.276123 96.199059,467.764771   C99.937546,464.872772 100.049110,460.749420 100.536057,456.610962   C100.822327,454.178070 101.394173,451.606171 102.552139,449.487305   C104.478111,445.963074 104.454056,442.987213 101.771530,439.954071   C98.711006,436.493500 97.138145,432.823547 100.136642,428.366394   C100.761276,427.437866 100.400070,425.847931 100.498428,424.563232   C100.860802,419.830658 100.708496,414.984406 101.718979,410.394318   C103.003685,404.558563 105.905533,399.392120 105.747734,392.835419   C105.616722,387.391937 108.110489,381.184814 111.240196,376.523682   C116.222931,369.102875 115.196983,362.583496 111.226151,355.660370   C109.425209,352.520416 109.368271,349.482086 110.991318,346.239838   C111.800186,344.624054 112.650185,342.784302 112.646446,341.047638   C112.627968,332.472839 117.390411,325.653503 121.930817,319.406372   C125.107063,315.036285 125.483421,311.321136 124.418098,306.953613   C123.365044,302.636353 124.648293,299.895264 128.537292,298.125977   C132.287338,296.419922 134.025909,293.638519 133.377823,290.280182   C131.579437,288.871887 129.170685,287.828522 129.208405,286.882629   C129.526962,278.890717 121.017494,272.871613 124.248245,264.292786   C124.451622,263.752777 123.676491,262.852264 123.374161,262.112305   C122.527016,260.038910 121.689423,257.961578 120.847389,255.886108   C120.277077,254.480377 119.705589,253.075134 119.122978,251.640961   C114.697220,253.668213 113.832077,256.267822 114.746162,260.406067   C116.704498,269.271820 116.938629,278.185242 113.612907,286.947113   C112.880211,288.877441 112.705963,291.279602 113.067650,293.324188   C115.861145,309.115723 106.799904,323.181488 106.633072,338.534241   C106.591003,342.405640 105.692314,346.262238 105.539352,350.139557   C105.408867,353.446960 106.788391,357.131866 105.756927,360.029297   C101.822281,371.081818 97.096786,381.850311 92.877640,392.806152   C92.017265,395.040283 91.237244,397.875885 91.873611,399.998505   C93.248985,404.586090 93.059784,408.632416 91.117935,413.010193   C90.001793,415.526459 90.095955,418.579559 89.645294,421.391022   C87.171623,421.912323 86.034157,421.047485 86.812057,418.485107   C87.487000,416.261841 88.641464,414.138489 89.007378,411.877655   C89.569664,408.403534 89.588524,404.844574 89.930199,401.330627   C90.252312,398.017883 90.064934,394.481537 91.197556,391.453491   C94.959915,381.394867 99.374260,371.580566 103.163208,361.531036   C104.032585,359.225189 103.373863,356.352844 103.467743,353.742950   C103.645088,348.812836 103.392151,343.811523 104.145996,338.968628   C106.212402,325.693481 109.499741,312.556244 110.696846,299.220123   C111.285919,292.657684 111.539314,286.307312 113.406754,279.853241   C117.935448,264.201538 110.426643,249.523987 95.415207,242.922394   C90.410461,240.721466 85.227859,238.672028 80.715103,235.668945   C74.999519,231.865448 69.769424,227.481979 68.727676,219.671982   C68.268593,216.230240 65.899803,213.002350 64.214149,209.773346   C60.320961,202.315659 56.372608,194.885361 52.338955,187.502808   C48.533096,180.537170 44.945744,173.459381 38.188606,168.595139   C33.378624,165.132568 33.032032,154.351562 36.703526,149.620453   C38.004562,147.943939 38.974457,144.830719 38.315865,143.021072   C35.713207,135.869614 36.147720,129.953949 39.798241,122.723221   C42.326550,117.715302 45.930237,114.951134 49.102074,111.112106   C54.901859,104.092384 61.567390,97.288033 61.333622,86.561211   C61.201210,80.485245 62.207657,74.700264 58.122326,70.273392   C59.724030,66.641129 61.143990,63.411697 62.576466,60.187828   C62.710350,59.886505 62.886662,59.405998 63.104866,59.368660   C72.846771,57.701694 72.842484,47.007385 79.103012,42.140774   C80.001282,41.442509 80.946869,40.604065 81.998413,40.340378   C85.666840,39.420486 89.605949,39.236328 93.034325,37.799416   C96.466843,36.360756 99.410477,33.755650 103.391670,31.115959   C104.135605,33.256557 105.223038,34.974701 105.165329,36.653488   C105.116730,38.067291 103.736984,39.435341 102.946480,40.823647   C103.252502,41.181828 103.558533,41.540009 103.864555,41.898190   C107.627747,40.886749 111.428108,39.994343 115.144745,38.833824   C119.821449,37.373524 123.839378,37.620670 127.306152,41.699013   C128.587357,43.206234 130.924896,44.965824 132.585587,44.788052   C137.924545,44.216557 142.859573,44.262589 147.774094,46.958790   C151.065811,48.764683 154.295654,47.553616 157.558548,45.536457   C159.970627,44.045277 163.192703,43.783855 166.102814,43.232979   C166.869263,43.087887 167.934586,43.747463 168.661133,44.301712   C171.595383,46.540112 174.540588,48.780014 177.306122,51.218536   C179.393402,53.059025 181.171509,55.245811 183.174332,57.188686   C183.932159,57.923832 184.957642,58.375439 185.820923,59.010883   C189.181549,61.484554 192.526031,63.980133 195.512741,66.773575   C193.356003,65.904770 191.563049,64.729950 188.804565,62.922485   C186.274170,66.882820 183.509308,70.498985 181.520294,74.500778   C178.957199,79.657570 180.314819,81.648384 185.872528,83.288788   C187.479919,83.763229 189.122879,85.271828 190.028946,86.748482   C192.621048,90.972847 192.660843,95.341827 190.448441,99.959427   C188.867386,103.259315 190.001236,106.241821 192.788803,108.846680   C195.476593,111.358292 197.860138,111.265060 200.785065,109.466499   C203.148544,108.013199 205.747086,106.942192 208.557083,105.544556   C207.305008,103.512520 206.501221,101.625237 205.196915,100.194130   C200.087692,94.588135 199.714630,89.157089 205.076202,83.460342   C207.800430,80.565811 206.831223,78.142792 203.568924,76.272881   C199.914017,74.177940 196.715454,71.641220 195.845764,67.160217  M128.783447,110.932655   C125.185310,110.932655 121.587173,110.932655 118.053841,110.932655   C116.735741,117.519875 115.241791,123.391190 120.086777,128.551620   C120.686501,129.190384 121.104225,130.424652 120.958939,131.271973   C119.650780,138.901703 118.197922,146.506638 116.827881,153.901123   C105.939178,154.229950 97.501907,156.374771 92.245964,167.077103   C88.412865,174.882187 89.831322,179.708954 94.847496,185.873108   C101.322083,193.829453 101.603691,196.139496 110.962326,188.419067   C111.148079,188.265839 111.530861,188.351440 112.305771,188.282654   C112.305771,192.046539 112.305771,195.777008 112.305771,199.714691   C120.532715,200.171967 127.914680,200.703323 134.908264,195.329636   C138.808014,192.333160 144.494492,191.662033 149.955505,189.738831   C150.141129,192.506790 150.298264,193.957245 150.326309,195.410187   C150.538177,206.384903 153.450607,209.809402 164.260559,212.049545   C165.822021,212.373138 167.244522,213.349167 168.743729,213.994522   C173.403824,216.000549 178.147278,217.836334 182.687271,220.083862   C184.081787,220.774216 185.574463,222.431381 185.902176,223.896378   C186.945984,228.562759 187.462738,233.347046 188.173843,238.024887   C192.225037,238.390366 195.974838,238.728653 197.926132,238.904694   C200.696930,242.683609 202.920670,245.108734 204.403076,247.924179   C205.662445,250.316010 207.465225,253.789749 206.606461,255.691376   C202.939850,263.810394 203.884445,271.930328 205.356720,280.569977   C208.743759,281.011353 212.504715,281.449432 216.245148,282.021790   C217.311539,282.184967 218.980682,282.476501 219.247925,283.153473   C221.456161,288.747101 221.164932,296.544556 230.686127,295.181976   C230.794434,295.166443 230.936127,295.384247 231.320511,295.716125   C230.631958,298.879852 229.907394,302.208984 229.422928,304.434937   C231.288345,306.300659 233.857773,307.778717 233.717667,308.925873   C233.205399,313.120453 236.823776,318.403320 231.032028,321.398621   C222.984985,325.560272 215.557297,330.451813 209.937881,339.401398   C215.855972,342.576569 221.692688,345.662781 227.476120,348.845825   C228.768677,349.557251 229.912872,350.561951 231.058426,351.512299   C234.092667,354.029633 237.090210,356.591217 240.478348,359.452698   C241.795410,356.123901 242.445847,352.875275 244.204376,350.420410   C246.695129,346.943420 249.496750,342.662201 253.119293,341.342224   C256.108917,340.252930 258.238953,339.661743 259.648315,336.719238   C260.477997,334.987030 261.764130,333.196930 263.325226,332.146942   C266.987946,329.683380 268.465027,326.232635 268.807159,322.116821   C269.068939,318.967590 268.859741,315.758820 269.357758,312.656403   C269.731537,310.327820 270.275879,307.510590 271.808044,305.966370   C283.069061,294.616760 296.158020,286.747314 312.776794,287.255768   C318.266296,287.423737 322.494812,284.170074 323.221130,280.489166   C325.062408,271.158142 332.196930,264.707092 334.442657,255.356201   C337.031982,244.574509 339.980896,234.382797 338.329468,223.120361   C337.750885,219.174622 337.172516,213.308182 344.382996,213.126343   C344.885956,213.113647 345.441467,212.380875 345.850891,211.882950   C352.143372,204.230927 358.633514,196.728241 364.632812,188.851974   C370.941223,180.569901 369.045013,171.570602 365.625763,162.799973   C365.165802,161.620117 363.040070,160.339325 361.716492,160.371506   C354.552216,160.545563 349.845245,156.515549 344.884949,152.084213   C340.517212,148.182236 335.699799,144.525879 329.126312,144.445557   C324.878693,144.393677 320.643860,143.408737 316.400299,142.865402   C313.460571,142.488998 310.518311,141.891251 307.572540,141.862442   C303.622620,141.823792 299.366577,142.976837 298.412964,137.099991   C298.275574,136.253311 296.896088,135.404572 295.911041,134.935196   C292.159332,133.147476 288.393036,131.361969 284.521881,129.859909   C278.643097,127.578865 275.027069,128.837372 270.752045,133.721664   C269.462708,135.194778 267.519714,136.497391 265.645020,136.979675   C260.451874,138.315674 254.954285,139.707687 253.172455,132.191544   C249.814102,133.591370 247.134140,134.708435 243.699799,136.139938   C246.772903,127.724396 249.562012,120.204346 256.807343,115.387009   C260.011444,113.256660 259.938141,111.261681 256.610046,108.937462   C255.035110,107.837585 253.951523,105.688820 253.227768,103.792931   C252.018066,100.624107 251.275650,97.276909 250.041962,92.978409   C248.487808,95.346298 247.767303,96.860947 246.674179,98.025963   C244.107147,100.761841 244.194855,105.984573 239.026321,106.279488   C235.035995,106.507164 230.777008,107.668777 227.128952,106.651932   C223.541214,105.651894 220.513611,105.445930 217.329483,106.934067   C215.868530,107.616852 214.765778,109.179138 213.278412,109.671700   C208.201202,111.353142 203.049805,112.831924 197.868820,114.162674   C196.663864,114.472176 194.974091,114.299438 193.942627,113.653542   C186.657791,109.091896 185.321396,104.975372 188.115250,96.610054   C189.837097,91.454498 188.042496,87.533554 184.047256,86.637192   C177.682236,95.126419 167.233734,93.755409 159.208160,97.507202   C162.482513,108.814827 159.944595,111.621300 152.470917,114.941597   C143.198059,119.061211 140.086166,118.198532 133.528549,109.041679   C132.283585,109.570267 130.936920,110.142044 128.783447,110.932655  M227.271408,313.703308   C224.840149,319.031067 220.855026,322.942810 214.950562,322.908539   C208.609314,322.871796 202.275757,321.508362 195.010361,320.608856   C198.067047,315.289917 200.586761,310.905334 203.412018,305.989105   C198.040955,303.325958 193.255157,299.809479 187.940414,298.580566   C179.557755,296.642303 173.846252,291.655396 168.339676,285.728302   C167.161331,284.459991 164.792358,283.895721 162.916687,283.757874   C158.512405,283.434174 153.955872,284.186829 149.677704,283.369446   C142.778076,282.051178 137.614090,284.866547 136.743088,291.873016   C136.248657,295.850372 134.901657,298.819489 131.086258,300.380310   C127.949074,301.663666 127.228073,303.921387 127.763054,307.195282   C128.395142,311.063446 128.461227,315.024078 128.772675,318.944641   C128.379044,318.776581 127.985413,318.608521 127.591782,318.440430   C125.854767,320.414032 123.977386,322.282532 122.406891,324.380737   C117.586357,330.821075 116.359100,338.582458 114.322174,346.104919   C113.395958,349.525452 112.536255,352.635284 114.785141,355.517517   C122.608994,365.544708 113.705086,374.707733 113.460495,384.300598   C113.454323,384.542511 113.074089,384.886566 112.795647,384.993195   C108.341507,386.698486 108.577370,390.709869 108.661995,394.247040   C108.776993,399.053375 109.977776,403.292938 106.054863,408.005249   C102.796326,411.919434 102.062477,418.079071 103.614136,423.794708   C104.059593,425.435577 104.050049,427.691864 103.244705,429.085541   C101.078621,432.834015 102.475151,435.580109 104.630341,438.621033   C106.002220,440.556702 108.200958,443.959198 107.503777,444.980865   C102.323540,452.572357 106.044945,463.168640 98.829910,469.914734   C98.413033,470.304474 98.221283,471.167664 98.269180,471.783752   C98.563148,475.565155 96.526878,477.857452 93.759712,480.072906   C92.687035,480.931702 91.876701,483.317383 92.295105,484.549805   C92.878403,486.267944 94.532661,488.515045 96.074928,488.827820   C99.211327,489.463806 100.545944,490.963348 101.406860,493.838593   C101.850548,495.320404 103.342148,497.521667 104.472557,497.592010   C110.483269,497.965912 116.529549,497.767944 122.496613,497.767944   C122.118683,497.019073 121.552223,495.634857 120.766777,494.388641   C118.267685,490.423645 120.153030,487.108612 123.452713,485.788971   C128.796341,483.651886 131.989975,479.982971 134.853989,475.314026   C136.128067,473.237030 138.926758,472.114960 140.975052,470.486053   C142.234726,469.484222 143.383987,468.343506 144.406250,467.423981   C140.292358,464.826019 136.753296,462.742706 133.414474,460.376770   C132.572815,459.780334 131.652557,457.899872 131.992584,457.256805   C134.227722,453.030121 135.335495,447.568390 142.002121,447.700928   C143.375031,447.728241 145.435135,446.316925 146.058411,445.027313   C148.404755,440.172668 150.288452,435.094421 151.789383,431.450012   C150.549759,426.272308 149.503235,421.901123 148.201645,416.464569   C152.728607,417.370758 155.766647,418.048462 158.830292,418.578094   C165.772369,419.778076 169.066666,417.480530 170.154877,410.806061   C170.369125,409.492004 170.867050,408.190125 170.868500,406.882172   C170.872055,403.652466 172.411255,402.569672 175.529785,402.652435   C183.216049,402.856567 190.624268,401.742096 198.035278,399.246887   C203.556274,397.388062 207.315674,394.522491 208.975525,390.609955   C207.775635,386.315552 207.027588,383.032898 205.894394,379.889069   C205.458466,378.679657 204.327499,377.489380 203.201248,376.800140   C198.232895,373.759521 196.115265,369.017395 197.550186,363.468079   C199.336945,356.558075 201.092148,349.638428 203.018951,342.767242   C203.442657,341.256195 204.286591,339.704559 205.352448,338.557739   C212.249344,331.136627 218.807724,323.356506 228.421844,319.043182   C231.937729,317.465759 231.962662,312.593201 228.685242,309.197601   C228.269135,310.570404 227.902771,311.779083 227.271408,313.703308  M121.113876,218.481766   C124.190521,214.002151 121.306488,210.541794 119.515709,206.580185   C117.282715,201.640289 112.911400,204.005417 109.366180,202.880447   C109.154175,200.383301 108.948761,197.963791 108.696770,194.995728   C101.348206,197.929031 96.650734,194.962006 93.366135,188.827118   C93.210526,188.536469 93.013412,188.246170 92.771149,188.026962   C84.990906,180.987579 84.537880,173.650757 89.884430,164.447189   C93.048637,159.000290 96.511803,154.638855 102.245483,153.168869   C108.276138,151.622757 109.832108,147.087723 112.085503,142.602600   C108.647934,138.817856 104.851822,138.579697 100.531189,140.151932   C95.374275,142.028458 92.392014,140.311630 89.344269,135.989990   C86.457863,131.897125 82.528137,128.540039 78.029053,123.769012   C78.251549,133.682297 73.426033,139.557983 66.728981,142.100082   C60.223228,144.569595 56.876942,148.839569 53.841877,154.236694   C52.721340,156.229279 51.350353,158.081024 49.749889,160.521011   C46.006638,156.938629 42.606705,153.684799 38.365524,149.625885   C37.372547,152.224197 35.711845,154.367584 36.031712,156.156891   C36.897232,160.998444 36.589947,166.672989 42.653831,169.089706   C43.857216,169.569305 44.724907,171.229507 45.452305,172.512604   C52.389694,184.749710 59.363403,196.968338 66.103493,209.314102   C68.592346,213.872910 71.281151,218.163803 72.315849,223.720474   C73.021675,227.510986 77.774384,231.118088 81.498917,233.664459   C90.906456,240.096146 102.936852,242.229507 110.801254,251.339737   C111.205498,251.807999 112.350746,252.005676 113.011337,251.823334   C117.113716,250.691040 120.398613,243.436111 119.268623,239.145218   C118.526489,236.327087 118.056114,233.252258 118.363060,230.388748   C118.767212,226.618378 120.053787,222.942566 121.113876,218.481766  M171.609177,267.179504   C173.697433,265.513763 175.612091,262.746063 177.905807,262.384735   C185.394150,261.205078 193.422485,256.257263 199.814529,264.249084   C207.883713,255.400238 199.884964,249.323975 196.063629,242.256363   C196.131607,242.275589 195.662796,242.070175 195.177200,242.016388   C185.088669,240.898865 185.088303,240.902252 183.858429,230.920471   C183.838058,230.755142 183.799271,230.589966 183.798828,230.424637   C183.785355,225.306152 181.874924,222.287689 176.163818,221.747086   C173.608353,221.505173 171.280090,219.125397 168.792404,217.823395   C166.762619,216.761047 164.681747,215.118301 162.566559,215.025040   C156.378662,214.752243 152.096573,211.663971 149.462234,206.560623   C147.722260,203.189880 147.118896,199.232422 145.589523,194.152054   C142.059097,195.676193 138.238373,197.231522 134.500366,198.965271   C130.567795,200.789230 126.714378,202.783859 122.458794,204.885437   C122.460342,204.889420 122.632301,205.907776 123.183792,206.640472   C126.031685,210.424255 125.853165,214.152206 124.780380,218.763504   C123.735260,223.255890 124.029312,228.013641 121.335312,232.164246   C120.824043,232.951935 121.079788,234.522217 121.461128,235.554245   C122.955544,239.598587 125.002930,243.537430 121.560966,247.656815   C121.222099,248.062347 121.531631,249.240738 121.843704,249.921188   C123.722198,254.017014 125.710510,258.062408 127.602219,262.152344   C127.864639,262.719727 128.051788,263.539398 127.843361,264.074615   C124.538918,272.559662 132.757523,278.218445 131.939514,287.185638   C134.626785,285.533447 136.152206,285.047363 136.984940,284.006897   C140.988190,279.005096 145.755402,278.055695 151.473373,280.673706   C152.344818,281.072693 153.450027,281.203918 154.414886,281.113831   C158.547836,280.728088 163.104630,281.106720 166.621262,279.391205   C168.554825,278.447998 168.692703,273.887177 169.717392,270.984711   C170.102219,269.894653 170.705460,268.881744 171.609177,267.179504  M122.444458,108.015747   C125.950958,107.448708 129.457458,106.881676 132.963974,106.314636   C132.999878,105.760460 133.035782,105.206276 133.071686,104.652100   C131.620377,103.620613 130.169067,102.589119 129.206833,101.905228   C130.351562,99.302063 132.366959,96.809937 131.778275,95.704300   C128.859879,90.223106 127.944633,84.881134 131.561615,78.984558   C127.649063,78.984558 124.671989,79.239502 121.767670,78.889961   C119.994797,78.676598 117.687103,78.002968 116.751266,76.714264   C114.494186,73.606178 111.745453,72.746223 108.159798,72.915901   C106.025673,73.016884 103.853172,72.587112 101.715652,72.274673   C97.871674,71.712814 96.099358,69.564789 95.892799,65.544769   C95.735664,62.486618 95.257515,59.156754 93.857338,56.511414   C91.047417,51.202675 92.657722,46.616207 94.972038,41.919193   C95.404144,41.042210 96.038963,40.265099 96.374283,39.755127   C92.253967,40.697723 88.312538,41.699932 84.328407,42.485641   C79.230080,43.491081 76.510162,46.568447 75.831879,51.792957   C75.648254,53.207333 74.724609,55.123512 73.576744,55.714905   C67.479973,58.856049 63.214352,63.550751 61.076088,68.702782   C65.939339,84.687874 65.148567,98.523689 51.990788,110.178024   C56.248711,112.475845 59.304420,115.295074 62.664543,115.722755   C73.530899,117.105865 81.785645,122.882378 89.550308,129.846924   C96.238449,135.845886 96.254974,135.523911 104.569931,136.165543   C108.346718,136.456955 111.999115,138.360382 116.907867,139.911819   C116.907867,136.365356 118.312630,131.846558 116.649361,129.631470   C111.259354,122.453201 114.263435,115.526405 115.224297,108.015778   C117.569817,108.015778 119.546692,108.015778 122.444458,108.015747  M103.931168,57.505741   C99.724991,56.174465 97.919434,51.635639 100.074432,47.810616   C101.989609,44.411278 101.989601,44.411274 99.781860,41.870987   C95.569397,45.933403 94.865517,49.839188 96.802597,55.142944   C97.918022,58.197006 98.809334,61.461254 99.018517,64.681747   C99.226143,67.878441 100.338875,69.156136 103.486183,69.216232   C106.473289,69.273254 109.493095,69.507721 112.420326,70.070740   C114.057167,70.385574 116.133469,71.125870 116.969223,72.373062   C119.225800,75.740540 121.981163,76.061539 125.581673,75.315971   C129.160950,74.574791 132.887741,74.271385 135.560043,78.424416   C131.443695,83.942856 131.812637,89.566360 135.395615,95.461052   C136.153671,96.708191 134.885498,99.186943 134.542389,101.146942   C135.463974,102.686096 137.057251,104.365723 137.542282,106.320351   C140.187805,116.981552 142.226868,114.070900 149.482697,112.364731   C157.182480,110.554169 158.492462,107.673256 156.559174,100.043732   C156.163589,98.482559 155.904831,96.886703 155.532684,95.059776   C156.880142,94.620346 157.934860,94.240639 159.009903,93.931747   C164.901779,92.238899 170.841187,90.696815 176.678650,88.834557   C180.504227,87.614128 181.422729,85.039909 178.269653,82.204376   C175.871307,80.047562 176.217545,78.009789 177.476089,75.661720   C179.977661,70.994469 182.503448,66.340202 185.119461,61.494888   C184.119476,61.317497 182.549606,61.039017 180.637695,60.699860   C181.866409,55.432430 178.358246,53.674328 174.472321,52.119011   C172.626312,51.380161 170.117966,50.871696 169.218842,49.437904   C165.317001,43.215790 160.747894,45.659973 156.559891,48.353401   C152.610367,50.893448 148.914749,49.613800 145.040222,48.921864   C141.750931,48.334446 138.373016,47.028332 135.187485,47.389896   C131.410522,47.818588 128.690948,47.126163 126.567070,44.108589   C123.828323,40.217419 120.043404,39.960552 115.920853,41.006680   C112.931480,41.765251 109.982895,42.684551 106.446724,43.694866   C109.260361,49.043179 109.985634,53.684841 103.931168,57.505741  M200.705215,271.060150   C196.486465,264.001678 193.976028,262.786346 186.036224,263.958923   C174.710159,265.631561 173.973938,266.225861 171.549789,277.419556   C171.091599,279.535339 170.563446,282.881897 171.668732,283.870544   C176.007446,287.751465 180.737656,291.353729 185.793701,294.231598   C191.531342,297.497437 197.833405,299.755951 203.769302,302.696259   C206.458588,304.028351 207.634506,306.078705 205.446091,309.125610   C203.635727,311.646149 202.312515,314.516571 200.739136,317.292603   C219.983414,324.093353 225.671982,317.251770 226.628387,297.878693   C220.351746,299.329926 218.997787,295.034973 218.198776,290.354950   C217.564545,286.640045 216.007324,284.524567 211.789566,284.510529   C208.243195,284.498718 204.699692,283.627808 201.550232,283.191925   C201.331711,278.919769 201.149384,275.355164 200.705215,271.060150  M50.785896,153.219788   C54.234844,147.213806 57.273846,141.160721 65.206955,139.332489   C68.161858,138.651520 70.848518,135.263275 72.902344,132.540024   C77.054832,127.034058 74.787315,121.927818 68.146759,120.007690   C63.285484,118.602051 58.535789,116.741600 53.858791,114.790421   C50.399632,113.347290 44.936714,115.417213 43.624397,118.796219   C42.392067,121.969261 40.732162,124.973839 39.411297,128.115967   C38.796757,129.577866 37.903267,131.343277 38.231998,132.706970   C39.548428,138.167908 40.748302,143.784195 43.128204,148.804016   C44.203720,151.072556 45.620518,155.642593 50.785896,153.219788  M230.958130,370.590546   C237.565872,361.875519 237.030640,360.346436 230.261826,354.854340   C224.097687,349.852875 215.195236,349.412048 210.226334,342.477692   C210.054184,342.237427 206.369064,343.482300 206.005432,344.588531   C204.355270,349.608917 202.974380,354.773376 202.123291,359.988220   C200.768005,368.292572 200.980667,368.319336 209.136490,370.562286   C209.930893,370.780792 210.715546,371.098785 211.443069,371.486328   C217.836426,374.891724 224.115555,374.794373 230.958130,370.590546  M219.931854,81.018448   C218.777512,81.095184 217.495483,81.537498 216.490524,81.186508   C211.674805,79.504509 209.122162,81.790497 207.310364,85.899017   C206.647903,87.401260 205.421112,88.659821 204.797684,90.172150   C204.424591,91.077187 204.322433,92.493629 204.783737,93.276314   C207.279861,97.511330 209.989975,101.620209 212.210754,105.117989   C216.464401,103.902870 220.006241,102.549904 223.671967,101.932640   C227.988876,101.205719 229.656784,98.395302 228.184036,94.232224   C227.270508,91.649872 226.769547,88.759125 226.839325,86.026108   C226.972992,80.791649 226.323425,80.050735 219.931854,81.018448  M120.545273,505.796844   C117.493614,508.074188 114.279297,510.186401 111.591606,512.833313   C111.247086,513.172607 113.265862,517.294434 114.855331,517.891113   C117.249969,518.789978 120.231483,518.125366 123.480232,518.125366   C123.480232,514.493164 123.677467,511.670929 123.383133,508.900940   C123.265442,507.793427 122.064056,506.801086 120.545273,505.796844  M256.502075,129.517578   C257.152832,130.668320 257.570435,132.549606 258.494324,132.844437   C262.686218,134.182129 267.811279,130.762238 269.126587,125.442024   C265.694183,125.442024 262.417755,125.189362 259.224243,125.592972   C258.241180,125.717216 257.484680,127.633888 256.502075,129.517578  M138.239807,516.139282   C134.575562,514.278015 130.911316,512.416687 126.980202,510.419861   C126.980202,512.984070 126.980202,515.523376 126.980202,518.528992   C132.392899,518.875854 137.491882,519.202637 142.590866,519.529419   C142.641968,519.187805 142.693085,518.846130 142.744186,518.504517   C141.448792,517.828064 140.153397,517.151611 138.239807,516.139282  M105.957932,49.675030   C105.153999,48.969978 104.350067,48.264927 103.546135,47.559872   C103.049088,48.851601 102.310219,50.115688 102.158058,51.446842   C102.083107,52.102436 103.093231,52.882065 103.612358,53.605564   C104.397247,52.549198 105.182129,51.492828 105.957932,49.675030  z"
   id="path2" />
<path
   fill="#F9CB15"
   opacity="1.000000"
   stroke="none"
   d=" M129.186859,110.823235   C130.936920,110.142044 132.283585,109.570267 133.528549,109.041679   C140.086166,118.198532 143.198059,119.061211 152.470917,114.941597   C159.944595,111.621300 162.482513,108.814827 159.208160,97.507202   C167.233734,93.755409 177.682236,95.126419 184.047256,86.637192   C188.042496,87.533554 189.837097,91.454498 188.115250,96.610054   C185.321396,104.975372 186.657791,109.091896 193.942627,113.653542   C194.974091,114.299438 196.663864,114.472176 197.868820,114.162674   C203.049805,112.831924 208.201202,111.353142 213.278412,109.671700   C214.765778,109.179138 215.868530,107.616852 217.329483,106.934067   C220.513611,105.445930 223.541214,105.651894 227.128952,106.651932   C230.777008,107.668777 235.035995,106.507164 239.026321,106.279488   C244.194855,105.984573 244.107147,100.761841 246.674179,98.025963   C247.767303,96.860947 248.487808,95.346298 250.041962,92.978409   C251.275650,97.276909 252.018066,100.624107 253.227768,103.792931   C253.951523,105.688820 255.035110,107.837585 256.610046,108.937462   C259.938141,111.261681 260.011444,113.256660 256.807343,115.387009   C249.562012,120.204346 246.772903,127.724396 243.699799,136.139938   C247.134140,134.708435 249.814102,133.591370 253.172455,132.191544   C254.954285,139.707687 260.451874,138.315674 265.645020,136.979675   C267.519714,136.497391 269.462708,135.194778 270.752045,133.721664   C275.027069,128.837372 278.643097,127.578865 284.521881,129.859909   C288.393036,131.361969 292.159332,133.147476 295.911041,134.935196   C296.896088,135.404572 298.275574,136.253311 298.412964,137.099991   C299.366577,142.976837 303.622620,141.823792 307.572540,141.862442   C310.518311,141.891251 313.460571,142.488998 316.400299,142.865402   C320.643860,143.408737 324.878693,144.393677 329.126312,144.445557   C335.699799,144.525879 340.517212,148.182236 344.884949,152.084213   C349.845245,156.515549 354.552216,160.545563 361.716492,160.371506   C363.040070,160.339325 365.165802,161.620117 365.625763,162.799973   C369.045013,171.570602 370.941223,180.569901 364.632812,188.851974   C358.633514,196.728241 352.143372,204.230927 345.850891,211.882950   C345.441467,212.380875 344.885956,213.113647 344.382996,213.126343   C337.172516,213.308182 337.750885,219.174622 338.329468,223.120361   C339.980896,234.382797 337.031982,244.574509 334.442657,255.356201   C332.196930,264.707092 325.062408,271.158142 323.221130,280.489166   C322.494812,284.170074 318.266296,287.423737 312.776794,287.255768   C296.158020,286.747314 283.069061,294.616760 271.808044,305.966370   C270.275879,307.510590 269.731537,310.327820 269.357758,312.656403   C268.859741,315.758820 269.068939,318.967590 268.807159,322.116821   C268.465027,326.232635 266.987946,329.683380 263.325226,332.146942   C261.764130,333.196930 260.477997,334.987030 259.648315,336.719238   C258.238953,339.661743 256.108917,340.252930 253.119293,341.342224   C249.496750,342.662201 246.695129,346.943420 244.204376,350.420410   C242.445847,352.875275 241.795410,356.123901 240.478348,359.452698   C237.090210,356.591217 234.092667,354.029633 231.058426,351.512299   C229.912872,350.561951 228.768677,349.557251 227.476120,348.845825   C221.692688,345.662781 215.855972,342.576569 209.937881,339.401398   C215.557297,330.451813 222.984985,325.560272 231.032028,321.398621   C236.823776,318.403320 233.205399,313.120453 233.717667,308.925873   C233.857773,307.778717 231.288345,306.300659 229.422928,304.434937   C229.907394,302.208984 230.631958,298.879852 231.320511,295.716125   C230.936127,295.384247 230.794434,295.166443 230.686127,295.181976   C221.164932,296.544556 221.456161,288.747101 219.247925,283.153473   C218.980682,282.476501 217.311539,282.184967 216.245148,282.021790   C212.504715,281.449432 208.743759,281.011353 205.356720,280.569977   C203.884445,271.930328 202.939850,263.810394 206.606461,255.691376   C207.465225,253.789749 205.662445,250.316010 204.403076,247.924179   C202.920670,245.108734 200.696930,242.683609 197.926132,238.904694   C195.974838,238.728653 192.225037,238.390366 188.173843,238.024887   C187.462738,233.347046 186.945984,228.562759 185.902176,223.896378   C185.574463,222.431381 184.081787,220.774216 182.687271,220.083862   C178.147278,217.836334 173.403824,216.000549 168.743729,213.994522   C167.244522,213.349167 165.822021,212.373138 164.260559,212.049545   C153.450607,209.809402 150.538177,206.384903 150.326309,195.410187   C150.298264,193.957245 150.141129,192.506790 149.955505,189.738831   C144.494492,191.662033 138.808014,192.333160 134.908264,195.329636   C127.914680,200.703323 120.532715,200.171967 112.305771,199.714691   C112.305771,195.777008 112.305771,192.046539 112.305771,188.282654   C111.530861,188.351440 111.148079,188.265839 110.962326,188.419067   C101.603691,196.139496 101.322083,193.829453 94.847496,185.873108   C89.831322,179.708954 88.412865,174.882187 92.245964,167.077103   C97.501907,156.374771 105.939178,154.229950 116.827881,153.901123   C118.197922,146.506638 119.650780,138.901703 120.958939,131.271973   C121.104225,130.424652 120.686501,129.190384 120.086777,128.551620   C115.241791,123.391190 116.735741,117.519875 118.053841,110.932655   C121.587173,110.932655 125.185310,110.932655 129.186859,110.823235  z"
   id="path3" />
<path
   fill="#0EA4E8"
   opacity="1.000000"
   stroke="none"
   d=" M227.403900,313.345520   C227.902771,311.779083 228.269135,310.570404 228.685242,309.197601   C231.962662,312.593201 231.937729,317.465759 228.421844,319.043182   C218.807724,323.356506 212.249344,331.136627 205.352448,338.557739   C204.286591,339.704559 203.442657,341.256195 203.018951,342.767242   C201.092148,349.638428 199.336945,356.558075 197.550186,363.468079   C196.115265,369.017395 198.232895,373.759521 203.201248,376.800140   C204.327499,377.489380 205.458466,378.679657 205.894394,379.889069   C207.027588,383.032898 207.775635,386.315552 208.975525,390.609955   C207.315674,394.522491 203.556274,397.388062 198.035278,399.246887   C190.624268,401.742096 183.216049,402.856567 175.529785,402.652435   C172.411255,402.569672 170.872055,403.652466 170.868500,406.882172   C170.867050,408.190125 170.369125,409.492004 170.154877,410.806061   C169.066666,417.480530 165.772369,419.778076 158.830292,418.578094   C155.766647,418.048462 152.728607,417.370758 148.201645,416.464569   C149.503235,421.901123 150.549759,426.272308 151.789383,431.450012   C150.288452,435.094421 148.404755,440.172668 146.058411,445.027313   C145.435135,446.316925 143.375031,447.728241 142.002121,447.700928   C135.335495,447.568390 134.227722,453.030121 131.992584,457.256805   C131.652557,457.899872 132.572815,459.780334 133.414474,460.376770   C136.753296,462.742706 140.292358,464.826019 144.406250,467.423981   C143.383987,468.343506 142.234726,469.484222 140.975052,470.486053   C138.926758,472.114960 136.128067,473.237030 134.853989,475.314026   C131.989975,479.982971 128.796341,483.651886 123.452713,485.788971   C120.153030,487.108612 118.267685,490.423645 120.766777,494.388641   C121.552223,495.634857 122.118683,497.019073 122.496613,497.767944   C116.529549,497.767944 110.483269,497.965912 104.472557,497.592010   C103.342148,497.521667 101.850548,495.320404 101.406860,493.838593   C100.545944,490.963348 99.211327,489.463806 96.074928,488.827820   C94.532661,488.515045 92.878403,486.267944 92.295105,484.549805   C91.876701,483.317383 92.687035,480.931702 93.759712,480.072906   C96.526878,477.857452 98.563148,475.565155 98.269180,471.783752   C98.221283,471.167664 98.413033,470.304474 98.829910,469.914734   C106.044945,463.168640 102.323540,452.572357 107.503777,444.980865   C108.200958,443.959198 106.002220,440.556702 104.630341,438.621033   C102.475151,435.580109 101.078621,432.834015 103.244705,429.085541   C104.050049,427.691864 104.059593,425.435577 103.614136,423.794708   C102.062477,418.079071 102.796326,411.919434 106.054863,408.005249   C109.977776,403.292938 108.776993,399.053375 108.661995,394.247040   C108.577370,390.709869 108.341507,386.698486 112.795647,384.993195   C113.074089,384.886566 113.454323,384.542511 113.460495,384.300598   C113.705086,374.707733 122.608994,365.544708 114.785141,355.517517   C112.536255,352.635284 113.395958,349.525452 114.322174,346.104919   C116.359100,338.582458 117.586357,330.821075 122.406891,324.380737   C123.977386,322.282532 125.854767,320.414032 127.591782,318.440430   C127.985413,318.608521 128.379044,318.776581 128.772675,318.944641   C128.461227,315.024078 128.395142,311.063446 127.763054,307.195282   C127.228073,303.921387 127.949074,301.663666 131.086258,300.380310   C134.901657,298.819489 136.248657,295.850372 136.743088,291.873016   C137.614090,284.866547 142.778076,282.051178 149.677704,283.369446   C153.955872,284.186829 158.512405,283.434174 162.916687,283.757874   C164.792358,283.895721 167.161331,284.459991 168.339676,285.728302   C173.846252,291.655396 179.557755,296.642303 187.940414,298.580566   C193.255157,299.809479 198.040955,303.325958 203.412018,305.989105   C200.586761,310.905334 198.067047,315.289917 195.010361,320.608856   C202.275757,321.508362 208.609314,322.871796 214.950562,322.908539   C220.855026,322.942810 224.840149,319.031067 227.403900,313.345520  z"
   id="path4" />
<path
   fill="#22C45E"
   opacity="1.000000"
   stroke="none"
   d=" M121.037415,218.853943   C120.053787,222.942566 118.767212,226.618378 118.363060,230.388748   C118.056114,233.252258 118.526489,236.327087 119.268623,239.145218   C120.398613,243.436111 117.113716,250.691040 113.011337,251.823334   C112.350746,252.005676 111.205498,251.807999 110.801254,251.339737   C102.936852,242.229507 90.906456,240.096146 81.498917,233.664459   C77.774384,231.118088 73.021675,227.510986 72.315849,223.720474   C71.281151,218.163803 68.592346,213.872910 66.103493,209.314102   C59.363403,196.968338 52.389694,184.749710 45.452305,172.512604   C44.724907,171.229507 43.857216,169.569305 42.653831,169.089706   C36.589947,166.672989 36.897232,160.998444 36.031712,156.156891   C35.711845,154.367584 37.372547,152.224197 38.365524,149.625885   C42.606705,153.684799 46.006638,156.938629 49.749889,160.521011   C51.350353,158.081024 52.721340,156.229279 53.841877,154.236694   C56.876942,148.839569 60.223228,144.569595 66.728981,142.100082   C73.426033,139.557983 78.251549,133.682297 78.029053,123.769012   C82.528137,128.540039 86.457863,131.897125 89.344269,135.989990   C92.392014,140.311630 95.374275,142.028458 100.531189,140.151932   C104.851822,138.579697 108.647934,138.817856 112.085503,142.602600   C109.832108,147.087723 108.276138,151.622757 102.245483,153.168869   C96.511803,154.638855 93.048637,159.000290 89.884430,164.447189   C84.537880,173.650757 84.990906,180.987579 92.771149,188.026962   C93.013412,188.246170 93.210526,188.536469 93.366135,188.827118   C96.650734,194.962006 101.348206,197.929031 108.696770,194.995728   C108.948761,197.963791 109.154175,200.383301 109.366180,202.880447   C112.911400,204.005417 117.282715,201.640289 119.515709,206.580185   C121.306488,210.541794 124.190521,214.002151 121.037415,218.853943  z"
   id="path5" />
<path
   fill="#10B881"
   opacity="1.000000"
   stroke="none"
   d=" M171.409149,267.506592   C170.705460,268.881744 170.102219,269.894653 169.717392,270.984711   C168.692703,273.887177 168.554825,278.447998 166.621262,279.391205   C163.104630,281.106720 158.547836,280.728088 154.414886,281.113831   C153.450027,281.203918 152.344818,281.072693 151.473373,280.673706   C145.755402,278.055695 140.988190,279.005096 136.984940,284.006897   C136.152206,285.047363 134.626785,285.533447 131.939514,287.185638   C132.757523,278.218445 124.538918,272.559662 127.843361,264.074615   C128.051788,263.539398 127.864639,262.719727 127.602219,262.152344   C125.710510,258.062408 123.722198,254.017014 121.843704,249.921188   C121.531631,249.240738 121.222099,248.062347 121.560966,247.656815   C125.002930,243.537430 122.955544,239.598587 121.461128,235.554245   C121.079788,234.522217 120.824043,232.951935 121.335312,232.164246   C124.029312,228.013641 123.735260,223.255890 124.780380,218.763504   C125.853165,214.152206 126.031685,210.424255 123.183792,206.640472   C122.632301,205.907776 122.460342,204.889420 122.458794,204.885437   C126.714378,202.783859 130.567795,200.789230 134.500366,198.965271   C138.238373,197.231522 142.059097,195.676193 145.589523,194.152054   C147.118896,199.232422 147.722260,203.189880 149.462234,206.560623   C152.096573,211.663971 156.378662,214.752243 162.566559,215.025040   C164.681747,215.118301 166.762619,216.761047 168.792404,217.823395   C171.280090,219.125397 173.608353,221.505173 176.163818,221.747086   C181.874924,222.287689 183.785355,225.306152 183.798828,230.424637   C183.799271,230.589966 183.838058,230.755142 183.858429,230.920471   C185.088303,240.902252 185.088669,240.898865 195.177200,242.016388   C195.662796,242.070175 196.131607,242.275589 196.063629,242.256363   C199.884964,249.323975 207.883713,255.400238 199.814529,264.249084   C193.422485,256.257263 185.394150,261.205078 177.905807,262.384735   C175.612091,262.746063 173.697433,265.513763 171.409149,267.506592  z"
   id="path6" />
<path
   fill="#3B81F5"
   opacity="1.000000"
   stroke="none"
   d=" M121.984009,108.015762   C119.546692,108.015778 117.569817,108.015778 115.224297,108.015778   C114.263435,115.526405 111.259354,122.453201 116.649361,129.631470   C118.312630,131.846558 116.907867,136.365356 116.907867,139.911819   C111.999115,138.360382 108.346718,136.456955 104.569931,136.165543   C96.254974,135.523911 96.238449,135.845886 89.550308,129.846924   C81.785645,122.882378 73.530899,117.105865 62.664543,115.722755   C59.304420,115.295074 56.248711,112.475845 51.990788,110.178024   C65.148567,98.523689 65.939339,84.687874 61.076088,68.702782   C63.214352,63.550751 67.479973,58.856049 73.576744,55.714905   C74.724609,55.123512 75.648254,53.207333 75.831879,51.792957   C76.510162,46.568447 79.230080,43.491081 84.328407,42.485641   C88.312538,41.699932 92.253967,40.697723 96.374283,39.755127   C96.038963,40.265099 95.404144,41.042210 94.972038,41.919193   C92.657722,46.616207 91.047417,51.202675 93.857338,56.511414   C95.257515,59.156754 95.735664,62.486618 95.892799,65.544769   C96.099358,69.564789 97.871674,71.712814 101.715652,72.274673   C103.853172,72.587112 106.025673,73.016884 108.159798,72.915901   C111.745453,72.746223 114.494186,73.606178 116.751266,76.714264   C117.687103,78.002968 119.994797,78.676598 121.767670,78.889961   C124.671989,79.239502 127.649063,78.984558 131.561615,78.984558   C127.944633,84.881134 128.859879,90.223106 131.778275,95.704300   C132.366959,96.809937 130.351562,99.302063 129.206833,101.905228   C130.169067,102.589119 131.620377,103.620613 133.071686,104.652100   C133.035782,105.206276 132.999878,105.760460 132.963974,106.314636   C129.457458,106.881676 125.950958,107.448708 121.984009,108.015762  z"
   id="path7" />
<path
   fill="#F77216"
   opacity="1.000000"
   stroke="none"
   d=" M104.201813,57.255211   C109.985634,53.684841 109.260361,49.043179 106.446724,43.694866   C109.982895,42.684551 112.931480,41.765251 115.920853,41.006680   C120.043404,39.960552 123.828323,40.217419 126.567070,44.108589   C128.690948,47.126163 131.410522,47.818588 135.187485,47.389896   C138.373016,47.028332 141.750931,48.334446 145.040222,48.921864   C148.914749,49.613800 152.610367,50.893448 156.559891,48.353401   C160.747894,45.659973 165.317001,43.215790 169.218842,49.437904   C170.117966,50.871696 172.626312,51.380161 174.472321,52.119011   C178.358246,53.674328 181.866409,55.432430 180.637695,60.699860   C182.549606,61.039017 184.119476,61.317497 185.119461,61.494888   C182.503448,66.340202 179.977661,70.994469 177.476089,75.661720   C176.217545,78.009789 175.871307,80.047562 178.269653,82.204376   C181.422729,85.039909 180.504227,87.614128 176.678650,88.834557   C170.841187,90.696815 164.901779,92.238899 159.009903,93.931747   C157.934860,94.240639 156.880142,94.620346 155.532684,95.059776   C155.904831,96.886703 156.163589,98.482559 156.559174,100.043732   C158.492462,107.673256 157.182480,110.554169 149.482697,112.364731   C142.226868,114.070900 140.187805,116.981552 137.542282,106.320351   C137.057251,104.365723 135.463974,102.686096 134.542389,101.146942   C134.885498,99.186943 136.153671,96.708191 135.395615,95.461052   C131.812637,89.566360 131.443695,83.942856 135.560043,78.424416   C132.887741,74.271385 129.160950,74.574791 125.581673,75.315971   C121.981163,76.061539 119.225800,75.740540 116.969223,72.373062   C116.133469,71.125870 114.057167,70.385574 112.420326,70.070740   C109.493095,69.507721 106.473289,69.273254 103.486183,69.216232   C100.338875,69.156136 99.226143,67.878441 99.018517,64.681747   C98.809334,61.461254 97.918022,58.197006 96.802597,55.142944   C94.865517,49.839188 95.569397,45.933403 99.781860,41.870987   C101.989601,44.411274 101.989609,44.411278 100.074432,47.810616   C97.919434,51.635639 99.724991,56.174465 104.201813,57.255211  z"
   id="path8" />
<path
   fill="#EA4344"
   opacity="1.000000"
   stroke="none"
   d=" M89.639587,421.395447   C90.095955,418.579559 90.001793,415.526459 91.117935,413.010193   C93.059784,408.632416 93.248985,404.586090 91.873611,399.998505   C91.237244,397.875885 92.017265,395.040283 92.877640,392.806152   C97.096786,381.850311 101.822281,371.081818 105.756927,360.029297   C106.788391,357.131866 105.408867,353.446960 105.539352,350.139557   C105.692314,346.262238 106.591003,342.405640 106.633072,338.534241   C106.799904,323.181488 115.861145,309.115723 113.067650,293.324188   C112.705963,291.279602 112.880211,288.877441 113.612907,286.947113   C116.938629,278.185242 116.704498,269.271820 114.746162,260.406067   C113.832077,256.267822 114.697220,253.668213 119.122978,251.640961   C119.705589,253.075134 120.277077,254.480377 120.847389,255.886108   C121.689423,257.961578 122.527016,260.038910 123.374161,262.112305   C123.676491,262.852264 124.451622,263.752777 124.248245,264.292786   C121.017494,272.871613 129.526962,278.890717 129.208405,286.882629   C129.170685,287.828522 131.579437,288.871887 133.377823,290.280182   C134.025909,293.638519 132.287338,296.419922 128.537292,298.125977   C124.648293,299.895264 123.365044,302.636353 124.418098,306.953613   C125.483421,311.321136 125.107063,315.036285 121.930817,319.406372   C117.390411,325.653503 112.627968,332.472839 112.646446,341.047638   C112.650185,342.784302 111.800186,344.624054 110.991318,346.239838   C109.368271,349.482086 109.425209,352.520416 111.226151,355.660370   C115.196983,362.583496 116.222931,369.102875 111.240196,376.523682   C108.110489,381.184814 105.616722,387.391937 105.747734,392.835419   C105.905533,399.392120 103.003685,404.558563 101.718979,410.394318   C100.708496,414.984406 100.860802,419.830658 100.498428,424.563232   C100.400070,425.847931 100.761276,427.437866 100.136642,428.366394   C97.138145,432.823547 98.711006,436.493500 101.771530,439.954071   C104.454056,442.987213 104.478111,445.963074 102.552139,449.487305   C101.394173,451.606171 100.822327,454.178070 100.536057,456.610962   C100.049110,460.749420 99.937546,464.872772 96.199059,467.764771   C95.538025,468.276123 95.100143,469.590179 95.190338,470.468750   C95.566864,474.136322 93.557465,476.204590 90.930038,478.283997   C89.604713,479.332825 87.895943,481.833008 88.326721,482.810303   C89.748184,486.035065 88.925446,490.675446 93.813507,492.081512   C95.560059,492.583923 97.915459,494.137909 98.292336,495.638916   C99.417458,500.119995 101.894234,501.511139 106.190971,500.958160   C108.231598,500.695557 110.333992,500.913025 111.713852,500.913025   C109.785675,503.711761 107.888168,506.465973 105.449570,510.005615   C99.562965,511.122253 94.928329,506.004456 89.251923,503.697845   C92.085899,497.218079 91.760033,496.592377 81.654221,488.907715   C87.017738,484.861115 85.912148,478.969513 84.855011,473.882568   C83.928001,469.421814 83.725349,465.846527 87.752136,462.091583   C84.651253,461.109863 82.272697,460.356842 80.289139,459.728851   C86.366432,454.867401 92.432953,450.014587 99.879730,444.057617   C93.146988,442.595581 93.327805,439.433197 94.879189,436.098999   C97.820686,429.777313 95.275787,425.393890 89.931244,421.569794   C89.643135,421.388672 89.633881,421.399902 89.639587,421.395447  z"
   id="path9" />
<path
   fill="#83CA16"
   opacity="1.000000"
   stroke="none"
   d=" M200.836136,271.425354   C201.149384,275.355164 201.331711,278.919769 201.550232,283.191925   C204.699692,283.627808 208.243195,284.498718 211.789566,284.510529   C216.007324,284.524567 217.564545,286.640045 218.198776,290.354950   C218.997787,295.034973 220.351746,299.329926 226.628387,297.878693   C225.671982,317.251770 219.983414,324.093353 200.739136,317.292603   C202.312515,314.516571 203.635727,311.646149 205.446091,309.125610   C207.634506,306.078705 206.458588,304.028351 203.769302,302.696259   C197.833405,299.755951 191.531342,297.497437 185.793701,294.231598   C180.737656,291.353729 176.007446,287.751465 171.668732,283.870544   C170.563446,282.881897 171.091599,279.535339 171.549789,277.419556   C173.973938,266.225861 174.710159,265.631561 186.036224,263.958923   C193.976028,262.786346 196.486465,264.001678 200.836136,271.425354  z"
   id="path10" />
<path
   fill="#14B6A4"
   opacity="1.000000"
   stroke="none"
   d=" M50.581528,153.512192   C45.620518,155.642593 44.203720,151.072556 43.128204,148.804016   C40.748302,143.784195 39.548428,138.167908 38.231998,132.706970   C37.903267,131.343277 38.796757,129.577866 39.411297,128.115967   C40.732162,124.973839 42.392067,121.969261 43.624397,118.796219   C44.936714,115.417213 50.399632,113.347290 53.858791,114.790421   C58.535789,116.741600 63.285484,118.602051 68.146759,120.007690   C74.787315,121.927818 77.054832,127.034058 72.902344,132.540024   C70.848518,135.263275 68.161858,138.651520 65.206955,139.332489   C57.273846,141.160721 54.234844,147.213806 50.581528,153.512192  z"
   id="path11" />
<path
   fill="#6265ED"
   opacity="1.000000"
   stroke="none"
   d=" M230.625244,370.765503   C224.115555,374.794373 217.836426,374.891724 211.443069,371.486328   C210.715546,371.098785 209.930893,370.780792 209.136490,370.562286   C200.980667,368.319336 200.768005,368.292572 202.123291,359.988220   C202.974380,354.773376 204.355270,349.608917 206.005432,344.588531   C206.369064,343.482300 210.054184,342.237427 210.226334,342.477692   C215.195236,349.412048 224.097687,349.852875 230.261826,354.854340   C237.030640,360.346436 237.565872,361.875519 230.625244,370.765503  z"
   id="path12" />
<path
   fill="#A554F3"
   opacity="1.000000"
   stroke="none"
   d=" M195.921478,67.094299   C196.715454,71.641220 199.914017,74.177940 203.568924,76.272881   C206.831223,78.142792 207.800430,80.565811 205.076202,83.460342   C199.714630,89.157089 200.087692,94.588135 205.196915,100.194130   C206.501221,101.625237 207.305008,103.512520 208.557083,105.544556   C205.747086,106.942192 203.148544,108.013199 200.785065,109.466499   C197.860138,111.265060 195.476593,111.358292 192.788803,108.846680   C190.001236,106.241821 188.867386,103.259315 190.448441,99.959427   C192.660843,95.341827 192.621048,90.972847 190.028946,86.748482   C189.122879,85.271828 187.479919,83.763229 185.872528,83.288788   C180.314819,81.648384 178.957199,79.657570 181.520294,74.500778   C183.509308,70.498985 186.274170,66.882820 188.804565,62.922485   C191.563049,64.729950 193.356003,65.904770 195.503876,67.126778   C195.858765,67.173973 195.997208,67.028389 195.921478,67.094299  z"
   id="path13" />
<path
   fill="#E74797"
   opacity="1.000000"
   stroke="none"
   d=" M220.354767,80.968636   C226.323425,80.050735 226.972992,80.791649 226.839325,86.026108   C226.769547,88.759125 227.270508,91.649872 228.184036,94.232224   C229.656784,98.395302 227.988876,101.205719 223.671967,101.932640   C220.006241,102.549904 216.464401,103.902870 212.210754,105.117989   C209.989975,101.620209 207.279861,97.511330 204.783737,93.276314   C204.322433,92.493629 204.424591,91.077187 204.797684,90.172150   C205.421112,88.659821 206.647903,87.401260 207.310364,85.899017   C209.122162,81.790497 211.674805,79.504509 216.490524,81.186508   C217.495483,81.537498 218.777512,81.095184 220.354767,80.968636  z"
   id="path14" />
<path
   fill="#E84344"
   opacity="1.000000"
   stroke="none"
   d=" M120.950623,505.776581   C122.064056,506.801086 123.265442,507.793427 123.383133,508.900940   C123.677467,511.670929 123.480232,514.493164 123.480232,518.125366   C120.231483,518.125366 117.249969,518.789978 114.855331,517.891113   C113.265862,517.294434 111.247086,513.172607 111.591606,512.833313   C114.279297,510.186401 117.493614,508.074188 120.950623,505.776581  z"
   id="path15" />
<path
   fill="#E2BA19"
   opacity="1.000000"
   stroke="none"
   d=" M256.563232,129.123688   C257.484680,127.633888 258.241180,125.717216 259.224243,125.592972   C262.417755,125.189362 265.694183,125.442024 269.126587,125.442024   C267.811279,130.762238 262.686218,134.182129 258.494324,132.844437   C257.570435,132.549606 257.152832,130.668320 256.563232,129.123688  z"
   id="path16" />
<path
   fill="#0F9AD9"
   opacity="1.000000"
   stroke="none"
   d=" M138.548904,516.307251   C140.153397,517.151611 141.448792,517.828064 142.744186,518.504517   C142.693085,518.846130 142.641968,519.187805 142.590866,519.529419   C137.491882,519.202637 132.392899,518.875854 126.980202,518.528992   C126.980202,515.523376 126.980202,512.984070 126.980202,510.419861   C130.911316,512.416687 134.575562,514.278015 138.548904,516.307251  z"
   id="path17" />
<path
   fill="#000000"
   opacity="1.000000"
   stroke="none"
   d=" M105.962479,50.055748   C105.182129,51.492828 104.397247,52.549198 103.612358,53.605564   C103.093231,52.882065 102.083107,52.102436 102.158058,51.446842   C102.310219,50.115688 103.049088,48.851601 103.546135,47.559872   C104.350067,48.264927 105.153999,48.969978 105.962479,50.055748  z"
   id="path18" />
</svg>
